<mxfile host="app.diagrams.net" agent="Mozilla/5.0 (Windows NT 10.0; Win64; x64) AppleWebKit/537.36 (KHTML, like Gecko) Chrome/128.0.0.0 Safari/537.36" version="24.7.10">
  <diagram name="Página-1" id="tjiVfg1TMCtxCHzKsQTt">
    <mxGraphModel dx="1434" dy="738" grid="1" gridSize="10" guides="1" tooltips="1" connect="1" arrows="1" fold="1" page="1" pageScale="1" pageWidth="1600" pageHeight="900" math="0" shadow="0">
      <root>
        <mxCell id="0" />
        <mxCell id="1" parent="0" />
        <mxCell id="62J02njOFjf-SE6aA7at-4" value="" style="rounded=1;whiteSpace=wrap;html=1;fillColor=#dae8fc;strokeColor=#6c8ebf;" parent="1" vertex="1">
          <mxGeometry x="107.5" y="80" width="932.5" height="130" as="geometry" />
        </mxCell>
        <mxCell id="62J02njOFjf-SE6aA7at-1" value="" style="shape=image;verticalLabelPosition=bottom;labelBackgroundColor=default;verticalAlign=top;aspect=fixed;imageAspect=0;image=https://k21academy.com/wp-content/uploads/2021/01/Google_Compute_Engine-Logo.png;" parent="1" vertex="1">
          <mxGeometry x="60" y="70" width="225" height="150" as="geometry" />
        </mxCell>
        <mxCell id="62J02njOFjf-SE6aA7at-6" value="&lt;h1 style=&quot;margin-top: 0px;&quot;&gt;&lt;span style=&quot;background-color: initial;&quot;&gt;Google Compute Engine&lt;/span&gt;&lt;/h1&gt;&lt;h1 style=&quot;margin-top: 0px; font-size: 14px;&quot;&gt;&lt;span style=&quot;background-color: initial; font-weight: normal;&quot;&gt;&lt;font style=&quot;font-size: 14px;&quot;&gt;O Serviço de IaaS do Google será usado para hospedar os serviços que usaremos para fazer a sustentação da plataforma&lt;/font&gt;&lt;font style=&quot;font-size: 14px;&quot;&gt;.&lt;/font&gt;&lt;/span&gt;&lt;br&gt;&lt;/h1&gt;" style="text;html=1;whiteSpace=wrap;overflow=hidden;rounded=0;" parent="1" vertex="1">
          <mxGeometry x="250" y="85" width="705" height="120" as="geometry" />
        </mxCell>
        <mxCell id="62J02njOFjf-SE6aA7at-7" value="" style="rounded=1;whiteSpace=wrap;html=1;fillColor=#d5e8d4;strokeColor=#82b366;" parent="1" vertex="1">
          <mxGeometry x="107.5" y="220" width="932.5" height="130" as="geometry" />
        </mxCell>
        <mxCell id="62J02njOFjf-SE6aA7at-8" value="&lt;h1 style=&quot;margin-top: 0px;&quot;&gt;OpenAI API&lt;/h1&gt;&lt;h1 style=&quot;margin-top: 0px;&quot;&gt;&lt;span style=&quot;background-color: initial; font-weight: normal;&quot;&gt;&lt;font style=&quot;font-size: 14px;&quot;&gt;A plataforma de Inteligência Artificial da OpenAI será utilizada para simplificar a implantação do modelo generativo (GPT-4), que fará a análise do texto extraído dos áudios pelo modelo Whisper, também da OpenAI.&lt;/font&gt;&lt;/span&gt;&lt;br&gt;&lt;/h1&gt;" style="text;html=1;whiteSpace=wrap;overflow=hidden;rounded=0;" parent="1" vertex="1">
          <mxGeometry x="255" y="225" width="785" height="120" as="geometry" />
        </mxCell>
        <mxCell id="62J02njOFjf-SE6aA7at-14" value="" style="rounded=1;whiteSpace=wrap;html=1;fillColor=#f8cecc;strokeColor=#b85450;" parent="1" vertex="1">
          <mxGeometry x="107.5" y="360" width="932.5" height="130" as="geometry" />
        </mxCell>
        <mxCell id="62J02njOFjf-SE6aA7at-15" value="&lt;h1 style=&quot;margin-top: 0px;&quot;&gt;&lt;span style=&quot;background-color: initial;&quot;&gt;Streamlit&lt;/span&gt;&lt;/h1&gt;&lt;h1 style=&quot;margin-top: 0px;&quot;&gt;&lt;span style=&quot;background-color: initial; font-weight: normal;&quot;&gt;&lt;font style=&quot;font-size: 14px;&quot;&gt;O Streamlit será utilizado na etapa final da solução, ou seja, para disponibilizar de forma gráfica os insights de NPS e entregar uma plataforma interativa para o usuário.&lt;/font&gt;&lt;/span&gt;&lt;br&gt;&lt;/h1&gt;" style="text;html=1;whiteSpace=wrap;overflow=hidden;rounded=0;" parent="1" vertex="1">
          <mxGeometry x="250" y="365" width="705" height="120" as="geometry" />
        </mxCell>
        <mxCell id="62J02njOFjf-SE6aA7at-16" value="" style="shape=image;verticalLabelPosition=bottom;labelBackgroundColor=default;verticalAlign=top;aspect=fixed;imageAspect=0;image=https://seeklogo.com/images/S/streamlit-logo-1A3B208AE4-seeklogo.com.png;" parent="1" vertex="1">
          <mxGeometry x="118.28" y="395" width="110.43" height="60" as="geometry" />
        </mxCell>
        <mxCell id="62J02njOFjf-SE6aA7at-17" value="" style="rounded=1;whiteSpace=wrap;html=1;fillColor=#dae8fc;strokeColor=#6c8ebf;" parent="1" vertex="1">
          <mxGeometry x="107.5" y="500" width="932.5" height="130" as="geometry" />
        </mxCell>
        <mxCell id="62J02njOFjf-SE6aA7at-18" value="&lt;h1 style=&quot;margin-top: 0px;&quot;&gt;&lt;span style=&quot;background-color: initial;&quot;&gt;Google Cloud Storage&lt;/span&gt;&lt;/h1&gt;&lt;h1 style=&quot;margin-top: 0px;&quot;&gt;&lt;span style=&quot;font-size: 14px; background-color: initial; font-weight: normal;&quot;&gt;Utilizado para armazenar os arquivos necessários em todas as etapas do processo.&lt;/span&gt;&lt;br&gt;&lt;/h1&gt;&lt;div&gt;&lt;span style=&quot;font-size: 14px; background-color: initial; font-weight: normal;&quot;&gt;&lt;br&gt;&lt;/span&gt;&lt;/div&gt;" style="text;html=1;whiteSpace=wrap;overflow=hidden;rounded=0;" parent="1" vertex="1">
          <mxGeometry x="255" y="505" width="705" height="120" as="geometry" />
        </mxCell>
        <mxCell id="62J02njOFjf-SE6aA7at-20" value="" style="shape=image;verticalLabelPosition=bottom;labelBackgroundColor=default;verticalAlign=top;aspect=fixed;imageAspect=0;image=https://estuary.dev/static/af2d249f72d99043c1683315b24d1c14/c0d5f/b5359d_image_12513891_300x300_15c289455c.png;" parent="1" vertex="1">
          <mxGeometry x="116" y="507.5" width="115" height="115" as="geometry" />
        </mxCell>
        <mxCell id="62J02njOFjf-SE6aA7at-21" value="" style="rounded=1;whiteSpace=wrap;html=1;fillColor=#d5e8d4;strokeColor=#82b366;" parent="1" vertex="1">
          <mxGeometry x="107.5" y="640" width="932.5" height="130" as="geometry" />
        </mxCell>
        <mxCell id="62J02njOFjf-SE6aA7at-22" value="&lt;h1 style=&quot;margin-top: 0px;&quot;&gt;Linguagem Python&lt;/h1&gt;&lt;h1 style=&quot;margin-top: 0px;&quot;&gt;&lt;span style=&quot;font-size: 14px; font-weight: 400;&quot;&gt;Será utilizada tanto no desenvolvimento das funções de aplicação dos modelos generativos, quanto no desenvolvimento da plataforma web.&lt;/span&gt;&lt;/h1&gt;" style="text;html=1;whiteSpace=wrap;overflow=hidden;rounded=0;" parent="1" vertex="1">
          <mxGeometry x="250" y="645" width="705" height="120" as="geometry" />
        </mxCell>
        <mxCell id="62J02njOFjf-SE6aA7at-24" value="" style="shape=image;verticalLabelPosition=bottom;labelBackgroundColor=default;verticalAlign=top;aspect=fixed;imageAspect=0;image=https://upload.wikimedia.org/wikipedia/commons/thumb/c/c3/Python-logo-notext.svg/1869px-Python-logo-notext.svg.png;" parent="1" vertex="1">
          <mxGeometry x="129.99999999999997" y="658.42" width="85" height="93.15" as="geometry" />
        </mxCell>
        <mxCell id="QfmNeu5Roasx2XIgbqLD-1" value="" style="shape=image;verticalLabelPosition=bottom;labelBackgroundColor=default;verticalAlign=top;aspect=fixed;imageAspect=0;image=https://static.vecteezy.com/system/resources/previews/022/227/364/non_2x/openai-chatgpt-logo-icon-free-png.png;" vertex="1" parent="1">
          <mxGeometry x="116" y="230" width="110" height="110" as="geometry" />
        </mxCell>
      </root>
    </mxGraphModel>
  </diagram>
</mxfile>
